<svg id="export-svg" width="100%" xmlns="http://www.w3.org/2000/svg" style="max-width: 2594px; background: rgb(255, 255, 255);" viewBox="-50 -10 2594 1308" role="graphics-document document" aria-roledescription="sequence"><style xmlns="http://www.w3.org/1999/xhtml">p {margin: 0;}</style><g><rect x="2344" y="1192" fill="#eaeaea" stroke="#666" width="150" height="65" name="Database" rx="6" ry="6" class="actor actor-bottom" data-look="neo" filter="url(#drop-shadow)"/><text x="2419" y="1224.5" style="text-anchor: middle; font-size: 16px; font-weight: 400;" dominant-baseline="central" alignment-baseline="central" class="actor actor-box"><tspan x="2419" dy="0">Database</tspan></text></g><g><rect x="2024.5" y="1192" fill="#eaeaea" stroke="#666" width="175" height="65" name="LocationRepository" rx="6" ry="6" class="actor actor-bottom" data-look="neo" filter="url(#drop-shadow)"/><text x="2112" y="1224.5" style="text-anchor: middle; font-size: 16px; font-weight: 400;" dominant-baseline="central" alignment-baseline="central" class="actor actor-box"><tspan x="2112" dy="0">LocationRepository</tspan></text></g><g><rect x="1710.5" y="1192" fill="#eaeaea" stroke="#666" width="264" height="65" name="LocationSuggestionRepository" rx="6" ry="6" class="actor actor-bottom" data-look="neo" filter="url(#drop-shadow)"/><text x="1842.5" y="1224.5" style="text-anchor: middle; font-size: 16px; font-weight: 400;" dominant-baseline="central" alignment-baseline="central" class="actor actor-box"><tspan x="1842.5" dy="0">LocationSuggestionRepository</tspan></text></g><g><rect x="1429" y="1192" fill="#eaeaea" stroke="#666" width="150" height="65" name="LocationService" rx="6" ry="6" class="actor actor-bottom" data-look="neo" filter="url(#drop-shadow)"/><text x="1504" y="1224.5" style="text-anchor: middle; font-size: 16px; font-weight: 400;" dominant-baseline="central" alignment-baseline="central" class="actor actor-box"><tspan x="1504" dy="0">LocationService</tspan></text></g><g><rect x="937.5" y="1192" fill="#eaeaea" stroke="#666" width="169" height="65" name="LocationController" rx="6" ry="6" class="actor actor-bottom" data-look="neo" filter="url(#drop-shadow)"/><text x="1022" y="1224.5" style="text-anchor: middle; font-size: 16px; font-weight: 400;" dominant-baseline="central" alignment-baseline="central" class="actor actor-box"><tspan x="1022" dy="0">LocationController</tspan></text></g><g><rect x="480" y="1192" fill="#eaeaea" stroke="#666" width="150" height="65" name="ReactApp" rx="6" ry="6" class="actor actor-bottom" data-look="neo" filter="url(#drop-shadow)"/><text x="555" y="1224.5" style="text-anchor: middle; font-size: 16px; font-weight: 400;" dominant-baseline="central" alignment-baseline="central" class="actor actor-box"><tspan x="555" dy="0">ReactApp</tspan></text></g><g/><g><line id="actor649" x1="2419" y1="65" x2="2419" y2="1192" class="actor-line 200" stroke-width="0.5px" stroke="#999" name="Database" data-et="life-line" data-id="Database"/><g id="root-649" data-look="neo" data-et="participant" data-type="participant" data-id="Database"><rect x="2344" y="0" fill="#eaeaea" stroke="#666" width="150" height="65" name="Database" rx="6" ry="6" class="actor actor-top" data-look="neo" filter="url(#drop-shadow)"/><text x="2419" y="32.5" style="text-anchor: middle; font-size: 16px; font-weight: 400;" dominant-baseline="central" alignment-baseline="central" class="actor actor-box"><tspan x="2419" dy="0">Database</tspan></text></g></g><g><line id="actor648" x1="2112" y1="65" x2="2112" y2="1192" class="actor-line 200" stroke-width="0.5px" stroke="#999" name="LocationRepository" data-et="life-line" data-id="LocationRepository"/><g id="root-648" data-look="neo" data-et="participant" data-type="participant" data-id="LocationRepository"><rect x="2024.5" y="0" fill="#eaeaea" stroke="#666" width="175" height="65" name="LocationRepository" rx="6" ry="6" class="actor actor-top" data-look="neo" filter="url(#drop-shadow)"/><text x="2112" y="32.5" style="text-anchor: middle; font-size: 16px; font-weight: 400;" dominant-baseline="central" alignment-baseline="central" class="actor actor-box"><tspan x="2112" dy="0">LocationRepository</tspan></text></g></g><g><line id="actor647" x1="1842.5" y1="65" x2="1842.5" y2="1192" class="actor-line 200" stroke-width="0.5px" stroke="#999" name="LocationSuggestionRepository" data-et="life-line" data-id="LocationSuggestionRepository"/><g id="root-647" data-look="neo" data-et="participant" data-type="participant" data-id="LocationSuggestionRepository"><rect x="1710.5" y="0" fill="#eaeaea" stroke="#666" width="264" height="65" name="LocationSuggestionRepository" rx="6" ry="6" class="actor actor-top" data-look="neo" filter="url(#drop-shadow)"/><text x="1842.5" y="32.5" style="text-anchor: middle; font-size: 16px; font-weight: 400;" dominant-baseline="central" alignment-baseline="central" class="actor actor-box"><tspan x="1842.5" dy="0">LocationSuggestionRepository</tspan></text></g></g><g><line id="actor646" x1="1504" y1="65" x2="1504" y2="1192" class="actor-line 200" stroke-width="0.5px" stroke="#999" name="LocationService" data-et="life-line" data-id="LocationService"/><g id="root-646" data-look="neo" data-et="participant" data-type="participant" data-id="LocationService"><rect x="1429" y="0" fill="#eaeaea" stroke="#666" width="150" height="65" name="LocationService" rx="6" ry="6" class="actor actor-top" data-look="neo" filter="url(#drop-shadow)"/><text x="1504" y="32.5" style="text-anchor: middle; font-size: 16px; font-weight: 400;" dominant-baseline="central" alignment-baseline="central" class="actor actor-box"><tspan x="1504" dy="0">LocationService</tspan></text></g></g><g><line id="actor645" x1="1022" y1="65" x2="1022" y2="1192" class="actor-line 200" stroke-width="0.5px" stroke="#999" name="LocationController" data-et="life-line" data-id="LocationController"/><g id="root-645" data-look="neo" data-et="participant" data-type="participant" data-id="LocationController"><rect x="937.5" y="0" fill="#eaeaea" stroke="#666" width="169" height="65" name="LocationController" rx="6" ry="6" class="actor actor-top" data-look="neo" filter="url(#drop-shadow)"/><text x="1022" y="32.5" style="text-anchor: middle; font-size: 16px; font-weight: 400;" dominant-baseline="central" alignment-baseline="central" class="actor actor-box"><tspan x="1022" dy="0">LocationController</tspan></text></g></g><g><line id="actor644" x1="555" y1="65" x2="555" y2="1192" class="actor-line 200" stroke-width="0.5px" stroke="#999" name="ReactApp" data-et="life-line" data-id="ReactApp"/><g id="root-644" data-look="neo" data-et="participant" data-type="participant" data-id="ReactApp"><rect x="480" y="0" fill="#eaeaea" stroke="#666" width="150" height="65" name="ReactApp" rx="6" ry="6" class="actor actor-top" data-look="neo" filter="url(#drop-shadow)"/><text x="555" y="32.5" style="text-anchor: middle; font-size: 16px; font-weight: 400;" dominant-baseline="central" alignment-baseline="central" class="actor actor-box"><tspan x="555" dy="0">ReactApp</tspan></text></g></g><g><line id="actor643" x1="75" y1="80" x2="75" y2="1192" class="actor-line 200" stroke-width="0.5px" stroke="#999" name="Admin" data-et="life-line" data-id="Admin"/></g><style>#export-svg{font-family:arial,sans-serif;font-size:14px;fill:#333;}@keyframes edge-animation-frame{from{stroke-dashoffset:0;}}@keyframes dash{to{stroke-dashoffset:0;}}#export-svg .edge-animation-slow{stroke-dasharray:9,5!important;stroke-dashoffset:900;animation:dash 50s linear infinite;stroke-linecap:round;}#export-svg .edge-animation-fast{stroke-dasharray:9,5!important;stroke-dashoffset:900;animation:dash 20s linear infinite;stroke-linecap:round;}#export-svg .error-icon{fill:hsl(220.5882352941, 100%, 98.3333333333%);}#export-svg .error-text{fill:rgb(8.5000000002, 5.7500000001, 0);stroke:rgb(8.5000000002, 5.7500000001, 0);}#export-svg .edge-thickness-normal{stroke-width:1px;}#export-svg .edge-thickness-thick{stroke-width:3.5px;}#export-svg .edge-pattern-solid{stroke-dasharray:0;}#export-svg .edge-thickness-invisible{stroke-width:0;fill:none;}#export-svg .edge-pattern-dashed{stroke-dasharray:3;}#export-svg .edge-pattern-dotted{stroke-dasharray:2;}#export-svg .marker{fill:#0b0b0b;stroke:#0b0b0b;}#export-svg .marker.cross{stroke:#0b0b0b;}#export-svg svg{font-family:arial,sans-serif;font-size:14px;}#export-svg p{margin:0;}#export-svg .actor{stroke:hsl(40.5882352941, 60%, 83.3333333333%);fill:#fff4dd;stroke-width:1;}#export-svg rect.actor.outer-path[data-look="neo"]{filter:drop-shadow( 1px 2px 2px rgba(185,185,185,1));}#export-svg rect.note[data-look="neo"]{stroke:hsl(52.6829268293, 60%, 73.9215686275%);fill:#fff5ad;filter:drop-shadow( 1px 2px 2px rgba(185,185,185,1));stroke-width:1;}#export-svg text.actor&gt;tspan{fill:#333;stroke:none;}#export-svg .actor-line{stroke:hsl(40.5882352941, 60%, 83.3333333333%);}#export-svg .innerArc{stroke-width:1.5;stroke-dasharray:none;}#export-svg .messageLine0{stroke-width:1;stroke-dasharray:none;stroke:#333;}#export-svg .messageLine1{stroke-width:1;stroke-dasharray:2,2;stroke:#333;}#export-svg #arrowhead path{fill:#333;stroke:#333;}#export-svg .sequenceNumber{fill:#f4f4f4;}#export-svg #sequencenumber{fill:#333;}#export-svg #crosshead path{fill:#333;stroke:#333;}#export-svg .messageText{fill:#333;stroke:none;}#export-svg .labelBox{stroke:hsl(40.5882352941, 60%, 83.3333333333%);fill:#fff4dd;filter:drop-shadow( 1px 2px 2px rgba(185,185,185,1));}#export-svg .labelText,#export-svg .labelText&gt;tspan{fill:#333;stroke:none;}#export-svg .loopText,#export-svg .loopText&gt;tspan{fill:#333;stroke:none;}#export-svg .loopLine{stroke-width:2px;stroke-dasharray:2,2;stroke:hsl(40.5882352941, 60%, 83.3333333333%);fill:hsl(40.5882352941, 60%, 83.3333333333%);}#export-svg .note{stroke:hsl(52.6829268293, 60%, 73.9215686275%);fill:#fff5ad;}#export-svg .noteText,#export-svg .noteText&gt;tspan{fill:#333;stroke:none;font-weight:normal;}#export-svg .activation0{fill:hsl(-79.4117647059, 100%, 93.3333333333%);stroke:hsl(-79.4117647059, 100%, 83.3333333333%);}#export-svg .activation1{fill:hsl(-79.4117647059, 100%, 93.3333333333%);stroke:hsl(-79.4117647059, 100%, 83.3333333333%);}#export-svg .activation2{fill:hsl(-79.4117647059, 100%, 93.3333333333%);stroke:hsl(-79.4117647059, 100%, 83.3333333333%);}#export-svg .actorPopupMenu{position:absolute;}#export-svg .actorPopupMenuPanel{position:absolute;fill:#fff4dd;box-shadow:0px 8px 16px 0px rgba(0,0,0,0.2);filter:drop-shadow(3px 5px 2px rgb(0 0 0 / 0.4));}#export-svg .actor-man circle,#export-svg line{fill:#fff4dd;stroke-width:2px;}#export-svg g rect.rect{filter:drop-shadow( 1px 2px 2px rgba(185,185,185,1));stroke:hsl(40.5882352941, 60%, 83.3333333333%);stroke-width:1;}#export-svg .node .neo-node{stroke:hsl(40.5882352941, 60%, 83.3333333333%);}#export-svg [data-look="neo"].node rect,#export-svg [data-look="neo"].cluster rect,#export-svg [data-look="neo"].node polygon{stroke:url(#export-svg-gradient);filter:drop-shadow( 1px 2px 2px rgba(185,185,185,1));}#export-svg [data-look="neo"].node path{stroke:url(#export-svg-gradient);stroke-width:1;}#export-svg [data-look="neo"].node .outer-path{filter:drop-shadow( 1px 2px 2px rgba(185,185,185,1));}#export-svg [data-look="neo"].node .neo-line path{stroke:hsl(40.5882352941, 60%, 83.3333333333%);filter:none;}#export-svg [data-look="neo"].node circle{stroke:url(#export-svg-gradient);filter:drop-shadow( 1px 2px 2px rgba(185,185,185,1));}#export-svg [data-look="neo"].node circle .state-start{fill:#000000;}#export-svg [data-look="neo"].statediagram-cluster rect{fill:#fff4dd;stroke:url(#export-svg-gradient);stroke-width:1;}#export-svg [data-look="neo"].icon-shape .icon{fill:url(#export-svg-gradient);filter:drop-shadow( 1px 2px 2px rgba(185,185,185,1));}#export-svg [data-look="neo"].icon-shape .icon-neo path{stroke:url(#export-svg-gradient);filter:drop-shadow( 1px 2px 2px rgba(185,185,185,1));}#export-svg :root{--mermaid-font-family:"trebuchet ms",verdana,arial,sans-serif;}</style><g/><defs><symbol id="computer" width="24" height="24"><path transform="scale(.5)" d="M2 2v13h20v-13h-20zm18 11h-16v-9h16v9zm-10.228 6l.466-1h3.524l.467 1h-4.457zm14.228 3h-24l2-6h2.104l-1.33 4h18.45l-1.297-4h2.073l2 6zm-5-10h-14v-7h14v7z"/></symbol></defs><defs><symbol id="database" fill-rule="evenodd" clip-rule="evenodd"><path transform="scale(.5)" d="M12.258.001l.256.004.255.005.253.008.251.01.249.012.247.015.246.016.242.019.241.02.239.023.236.024.233.027.231.028.229.031.225.032.223.034.22.036.217.038.214.04.211.041.208.043.205.045.201.046.198.048.194.05.191.051.187.053.183.054.18.056.175.057.172.059.168.06.163.061.16.063.155.064.15.066.074.033.073.033.071.034.07.034.069.035.068.035.067.035.066.035.064.036.064.036.062.036.06.036.06.037.058.037.058.037.055.038.055.038.053.038.052.038.051.039.05.039.048.039.047.039.045.04.044.04.043.04.041.04.04.041.039.041.037.041.036.041.034.041.033.042.032.042.03.042.029.042.027.042.026.043.024.043.023.043.021.043.02.043.018.044.017.043.015.044.013.044.012.044.011.045.009.044.007.045.006.045.004.045.002.045.001.045v17l-.001.045-.002.045-.004.045-.006.045-.007.045-.009.044-.011.045-.012.044-.013.044-.015.044-.017.043-.018.044-.02.043-.021.043-.023.043-.024.043-.026.043-.027.042-.029.042-.03.042-.032.042-.033.042-.034.041-.036.041-.037.041-.039.041-.04.041-.041.04-.043.04-.044.04-.045.04-.047.039-.048.039-.05.039-.051.039-.052.038-.053.038-.055.038-.055.038-.058.037-.058.037-.06.037-.06.036-.062.036-.064.036-.064.036-.066.035-.067.035-.068.035-.069.035-.07.034-.071.034-.073.033-.074.033-.15.066-.155.064-.16.063-.163.061-.168.06-.172.059-.175.057-.18.056-.183.054-.187.053-.191.051-.194.05-.198.048-.201.046-.205.045-.208.043-.211.041-.214.04-.217.038-.22.036-.223.034-.225.032-.229.031-.231.028-.233.027-.236.024-.239.023-.241.02-.242.019-.246.016-.247.015-.249.012-.251.01-.253.008-.255.005-.256.004-.258.001-.258-.001-.256-.004-.255-.005-.253-.008-.251-.01-.249-.012-.247-.015-.245-.016-.243-.019-.241-.02-.238-.023-.236-.024-.234-.027-.231-.028-.228-.031-.226-.032-.223-.034-.22-.036-.217-.038-.214-.04-.211-.041-.208-.043-.204-.045-.201-.046-.198-.048-.195-.05-.19-.051-.187-.053-.184-.054-.179-.056-.176-.057-.172-.059-.167-.06-.164-.061-.159-.063-.155-.064-.151-.066-.074-.033-.072-.033-.072-.034-.07-.034-.069-.035-.068-.035-.067-.035-.066-.035-.064-.036-.063-.036-.062-.036-.061-.036-.06-.037-.058-.037-.057-.037-.056-.038-.055-.038-.053-.038-.052-.038-.051-.039-.049-.039-.049-.039-.046-.039-.046-.04-.044-.04-.043-.04-.041-.04-.04-.041-.039-.041-.037-.041-.036-.041-.034-.041-.033-.042-.032-.042-.03-.042-.029-.042-.027-.042-.026-.043-.024-.043-.023-.043-.021-.043-.02-.043-.018-.044-.017-.043-.015-.044-.013-.044-.012-.044-.011-.045-.009-.044-.007-.045-.006-.045-.004-.045-.002-.045-.001-.045v-17l.001-.045.002-.045.004-.045.006-.045.007-.045.009-.044.011-.045.012-.044.013-.044.015-.044.017-.043.018-.044.02-.043.021-.043.023-.043.024-.043.026-.043.027-.042.029-.042.03-.042.032-.042.033-.042.034-.041.036-.041.037-.041.039-.041.04-.041.041-.04.043-.04.044-.04.046-.04.046-.039.049-.039.049-.039.051-.039.052-.038.053-.038.055-.038.056-.038.057-.037.058-.037.06-.037.061-.036.062-.036.063-.036.064-.036.066-.035.067-.035.068-.035.069-.035.07-.034.072-.034.072-.033.074-.033.151-.066.155-.064.159-.063.164-.061.167-.06.172-.059.176-.057.179-.056.184-.054.187-.053.19-.051.195-.05.198-.048.201-.046.204-.045.208-.043.211-.041.214-.04.217-.038.22-.036.223-.034.226-.032.228-.031.231-.028.234-.027.236-.024.238-.023.241-.02.243-.019.245-.016.247-.015.249-.012.251-.01.253-.008.255-.005.256-.004.258-.001.258.001zm-9.258 20.499v.01l.001.021.003.021.004.022.005.021.006.022.007.022.009.023.01.022.011.023.012.023.013.023.015.023.016.024.017.023.018.024.019.024.021.024.022.025.023.024.024.025.052.049.056.05.061.051.066.051.07.051.075.051.079.052.084.052.088.052.092.052.097.052.102.051.105.052.11.052.114.051.119.051.123.051.127.05.131.05.135.05.139.048.144.049.147.047.152.047.155.047.16.045.163.045.167.043.171.043.176.041.178.041.183.039.187.039.19.037.194.035.197.035.202.033.204.031.209.03.212.029.216.027.219.025.222.024.226.021.23.02.233.018.236.016.24.015.243.012.246.01.249.008.253.005.256.004.259.001.26-.001.257-.004.254-.005.25-.008.247-.011.244-.012.241-.014.237-.016.233-.018.231-.021.226-.021.224-.024.22-.026.216-.027.212-.028.21-.031.205-.031.202-.034.198-.034.194-.036.191-.037.187-.039.183-.04.179-.04.175-.042.172-.043.168-.044.163-.045.16-.046.155-.046.152-.047.148-.048.143-.049.139-.049.136-.05.131-.05.126-.05.123-.051.118-.052.114-.051.11-.052.106-.052.101-.052.096-.052.092-.052.088-.053.083-.051.079-.052.074-.052.07-.051.065-.051.06-.051.056-.05.051-.05.023-.024.023-.025.021-.024.02-.024.019-.024.018-.024.017-.024.015-.023.014-.024.013-.023.012-.023.01-.023.01-.022.008-.022.006-.022.006-.022.004-.022.004-.021.001-.021.001-.021v-4.127l-.077.055-.08.053-.083.054-.085.053-.087.052-.09.052-.093.051-.095.05-.097.05-.1.049-.102.049-.105.048-.106.047-.109.047-.111.046-.114.045-.115.045-.118.044-.12.043-.122.042-.124.042-.126.041-.128.04-.13.04-.132.038-.134.038-.135.037-.138.037-.139.035-.142.035-.143.034-.144.033-.147.032-.148.031-.15.03-.151.03-.153.029-.154.027-.156.027-.158.026-.159.025-.161.024-.162.023-.163.022-.165.021-.166.02-.167.019-.169.018-.169.017-.171.016-.173.015-.173.014-.175.013-.175.012-.177.011-.178.01-.179.008-.179.008-.181.006-.182.005-.182.004-.184.003-.184.002h-.37l-.184-.002-.184-.003-.182-.004-.182-.005-.181-.006-.179-.008-.179-.008-.178-.01-.176-.011-.176-.012-.175-.013-.173-.014-.172-.015-.171-.016-.17-.017-.169-.018-.167-.019-.166-.02-.165-.021-.163-.022-.162-.023-.161-.024-.159-.025-.157-.026-.156-.027-.155-.027-.153-.029-.151-.03-.15-.03-.148-.031-.146-.032-.145-.033-.143-.034-.141-.035-.14-.035-.137-.037-.136-.037-.134-.038-.132-.038-.13-.04-.128-.04-.126-.041-.124-.042-.122-.042-.12-.044-.117-.043-.116-.045-.113-.045-.112-.046-.109-.047-.106-.047-.105-.048-.102-.049-.1-.049-.097-.05-.095-.05-.093-.052-.09-.051-.087-.052-.085-.053-.083-.054-.08-.054-.077-.054v4.127zm0-5.654v.011l.001.021.003.021.004.021.005.022.006.022.007.022.009.022.01.022.011.023.012.023.013.023.015.024.016.023.017.024.018.024.019.024.021.024.022.024.023.025.024.024.052.05.056.05.061.05.066.051.07.051.075.052.079.051.084.052.088.052.092.052.097.052.102.052.105.052.11.051.114.051.119.052.123.05.127.051.131.05.135.049.139.049.144.048.147.048.152.047.155.046.16.045.163.045.167.044.171.042.176.042.178.04.183.04.187.038.19.037.194.036.197.034.202.033.204.032.209.03.212.028.216.027.219.025.222.024.226.022.23.02.233.018.236.016.24.014.243.012.246.01.249.008.253.006.256.003.259.001.26-.001.257-.003.254-.006.25-.008.247-.01.244-.012.241-.015.237-.016.233-.018.231-.02.226-.022.224-.024.22-.025.216-.027.212-.029.21-.03.205-.032.202-.033.198-.035.194-.036.191-.037.187-.039.183-.039.179-.041.175-.042.172-.043.168-.044.163-.045.16-.045.155-.047.152-.047.148-.048.143-.048.139-.05.136-.049.131-.05.126-.051.123-.051.118-.051.114-.052.11-.052.106-.052.101-.052.096-.052.092-.052.088-.052.083-.052.079-.052.074-.051.07-.052.065-.051.06-.05.056-.051.051-.049.023-.025.023-.024.021-.025.02-.024.019-.024.018-.024.017-.024.015-.023.014-.023.013-.024.012-.022.01-.023.01-.023.008-.022.006-.022.006-.022.004-.021.004-.022.001-.021.001-.021v-4.139l-.077.054-.08.054-.083.054-.085.052-.087.053-.09.051-.093.051-.095.051-.097.05-.1.049-.102.049-.105.048-.106.047-.109.047-.111.046-.114.045-.115.044-.118.044-.12.044-.122.042-.124.042-.126.041-.128.04-.13.039-.132.039-.134.038-.135.037-.138.036-.139.036-.142.035-.143.033-.144.033-.147.033-.148.031-.15.03-.151.03-.153.028-.154.028-.156.027-.158.026-.159.025-.161.024-.162.023-.163.022-.165.021-.166.02-.167.019-.169.018-.169.017-.171.016-.173.015-.173.014-.175.013-.175.012-.177.011-.178.009-.179.009-.179.007-.181.007-.182.005-.182.004-.184.003-.184.002h-.37l-.184-.002-.184-.003-.182-.004-.182-.005-.181-.007-.179-.007-.179-.009-.178-.009-.176-.011-.176-.012-.175-.013-.173-.014-.172-.015-.171-.016-.17-.017-.169-.018-.167-.019-.166-.02-.165-.021-.163-.022-.162-.023-.161-.024-.159-.025-.157-.026-.156-.027-.155-.028-.153-.028-.151-.03-.15-.03-.148-.031-.146-.033-.145-.033-.143-.033-.141-.035-.14-.036-.137-.036-.136-.037-.134-.038-.132-.039-.13-.039-.128-.04-.126-.041-.124-.042-.122-.043-.12-.043-.117-.044-.116-.044-.113-.046-.112-.046-.109-.046-.106-.047-.105-.048-.102-.049-.1-.049-.097-.05-.095-.051-.093-.051-.09-.051-.087-.053-.085-.052-.083-.054-.08-.054-.077-.054v4.139zm0-5.666v.011l.001.02.003.022.004.021.005.022.006.021.007.022.009.023.01.022.011.023.012.023.013.023.015.023.016.024.017.024.018.023.019.024.021.025.022.024.023.024.024.025.052.05.056.05.061.05.066.051.07.051.075.052.079.051.084.052.088.052.092.052.097.052.102.052.105.051.11.052.114.051.119.051.123.051.127.05.131.05.135.05.139.049.144.048.147.048.152.047.155.046.16.045.163.045.167.043.171.043.176.042.178.04.183.04.187.038.19.037.194.036.197.034.202.033.204.032.209.03.212.028.216.027.219.025.222.024.226.021.23.02.233.018.236.017.24.014.243.012.246.01.249.008.253.006.256.003.259.001.26-.001.257-.003.254-.006.25-.008.247-.01.244-.013.241-.014.237-.016.233-.018.231-.02.226-.022.224-.024.22-.025.216-.027.212-.029.21-.03.205-.032.202-.033.198-.035.194-.036.191-.037.187-.039.183-.039.179-.041.175-.042.172-.043.168-.044.163-.045.16-.045.155-.047.152-.047.148-.048.143-.049.139-.049.136-.049.131-.051.126-.05.123-.051.118-.052.114-.051.11-.052.106-.052.101-.052.096-.052.092-.052.088-.052.083-.052.079-.052.074-.052.07-.051.065-.051.06-.051.056-.05.051-.049.023-.025.023-.025.021-.024.02-.024.019-.024.018-.024.017-.024.015-.023.014-.024.013-.023.012-.023.01-.022.01-.023.008-.022.006-.022.006-.022.004-.022.004-.021.001-.021.001-.021v-4.153l-.077.054-.08.054-.083.053-.085.053-.087.053-.09.051-.093.051-.095.051-.097.05-.1.049-.102.048-.105.048-.106.048-.109.046-.111.046-.114.046-.115.044-.118.044-.12.043-.122.043-.124.042-.126.041-.128.04-.13.039-.132.039-.134.038-.135.037-.138.036-.139.036-.142.034-.143.034-.144.033-.147.032-.148.032-.15.03-.151.03-.153.028-.154.028-.156.027-.158.026-.159.024-.161.024-.162.023-.163.023-.165.021-.166.02-.167.019-.169.018-.169.017-.171.016-.173.015-.173.014-.175.013-.175.012-.177.01-.178.01-.179.009-.179.007-.181.006-.182.006-.182.004-.184.003-.184.001-.185.001-.185-.001-.184-.001-.184-.003-.182-.004-.182-.006-.181-.006-.179-.007-.179-.009-.178-.01-.176-.01-.176-.012-.175-.013-.173-.014-.172-.015-.171-.016-.17-.017-.169-.018-.167-.019-.166-.02-.165-.021-.163-.023-.162-.023-.161-.024-.159-.024-.157-.026-.156-.027-.155-.028-.153-.028-.151-.03-.15-.03-.148-.032-.146-.032-.145-.033-.143-.034-.141-.034-.14-.036-.137-.036-.136-.037-.134-.038-.132-.039-.13-.039-.128-.041-.126-.041-.124-.041-.122-.043-.12-.043-.117-.044-.116-.044-.113-.046-.112-.046-.109-.046-.106-.048-.105-.048-.102-.048-.1-.05-.097-.049-.095-.051-.093-.051-.09-.052-.087-.052-.085-.053-.083-.053-.08-.054-.077-.054v4.153zm8.74-8.179l-.257.004-.254.005-.25.008-.247.011-.244.012-.241.014-.237.016-.233.018-.231.021-.226.022-.224.023-.22.026-.216.027-.212.028-.21.031-.205.032-.202.033-.198.034-.194.036-.191.038-.187.038-.183.04-.179.041-.175.042-.172.043-.168.043-.163.045-.16.046-.155.046-.152.048-.148.048-.143.048-.139.049-.136.05-.131.05-.126.051-.123.051-.118.051-.114.052-.11.052-.106.052-.101.052-.096.052-.092.052-.088.052-.083.052-.079.052-.074.051-.07.052-.065.051-.06.05-.056.05-.051.05-.023.025-.023.024-.021.024-.02.025-.019.024-.018.024-.017.023-.015.024-.014.023-.013.023-.012.023-.01.023-.01.022-.008.022-.006.023-.006.021-.004.022-.004.021-.001.021-.001.021.001.021.001.021.004.021.004.022.006.021.006.023.008.022.01.022.01.023.012.023.013.023.014.023.015.024.017.023.018.024.019.024.02.025.021.024.023.024.023.025.051.05.056.05.06.05.065.051.07.052.074.051.079.052.083.052.088.052.092.052.096.052.101.052.106.052.11.052.114.052.118.051.123.051.126.051.131.05.136.05.139.049.143.048.148.048.152.048.155.046.16.046.163.045.168.043.172.043.175.042.179.041.183.04.187.038.191.038.194.036.198.034.202.033.205.032.21.031.212.028.216.027.22.026.224.023.226.022.231.021.233.018.237.016.241.014.244.012.247.011.25.008.254.005.257.004.26.001.26-.001.257-.004.254-.005.25-.008.247-.011.244-.012.241-.014.237-.016.233-.018.231-.021.226-.022.224-.023.22-.026.216-.027.212-.028.21-.031.205-.032.202-.033.198-.034.194-.036.191-.038.187-.038.183-.04.179-.041.175-.042.172-.043.168-.043.163-.045.16-.046.155-.046.152-.048.148-.048.143-.048.139-.049.136-.05.131-.05.126-.051.123-.051.118-.051.114-.052.11-.052.106-.052.101-.052.096-.052.092-.052.088-.052.083-.052.079-.052.074-.051.07-.052.065-.051.06-.05.056-.05.051-.05.023-.025.023-.024.021-.024.02-.025.019-.024.018-.024.017-.023.015-.024.014-.023.013-.023.012-.023.01-.023.01-.022.008-.022.006-.023.006-.021.004-.022.004-.021.001-.021.001-.021-.001-.021-.001-.021-.004-.021-.004-.022-.006-.021-.006-.023-.008-.022-.01-.022-.01-.023-.012-.023-.013-.023-.014-.023-.015-.024-.017-.023-.018-.024-.019-.024-.02-.025-.021-.024-.023-.024-.023-.025-.051-.05-.056-.05-.06-.05-.065-.051-.07-.052-.074-.051-.079-.052-.083-.052-.088-.052-.092-.052-.096-.052-.101-.052-.106-.052-.11-.052-.114-.052-.118-.051-.123-.051-.126-.051-.131-.05-.136-.05-.139-.049-.143-.048-.148-.048-.152-.048-.155-.046-.16-.046-.163-.045-.168-.043-.172-.043-.175-.042-.179-.041-.183-.04-.187-.038-.191-.038-.194-.036-.198-.034-.202-.033-.205-.032-.21-.031-.212-.028-.216-.027-.22-.026-.224-.023-.226-.022-.231-.021-.233-.018-.237-.016-.241-.014-.244-.012-.247-.011-.25-.008-.254-.005-.257-.004-.26-.001-.26.001z"/></symbol></defs><defs><symbol id="clock" width="24" height="24"><path transform="scale(.5)" d="M12 2c5.514 0 10 4.486 10 10s-4.486 10-10 10-10-4.486-10-10 4.486-10 10-10zm0-2c-6.627 0-12 5.373-12 12s5.373 12 12 12 12-5.373 12-12-5.373-12-12-12zm5.848 12.459c.202.038.202.333.001.372-1.907.361-6.045 1.111-6.547 1.111-.719 0-1.301-.582-1.301-1.301 0-.512.77-5.447 1.125-7.445.034-.192.312-.181.343.014l.985 6.238 5.394 1.011z"/></symbol></defs><defs><marker id="arrowhead" refX="7.9" refY="5" markerUnits="userSpaceOnUse" markerWidth="12" markerHeight="12" orient="auto-start-reverse"><path d="M -1 0 L 10 5 L 0 10 z"/></marker></defs><defs><marker id="crosshead" markerWidth="15" markerHeight="8" orient="auto" refX="4" refY="4.5"><path fill="none" stroke="#000000" stroke-width="1pt" d="M 1,2 L 6,7 M 6,2 L 1,7" style="stroke-dasharray: 0, 0;"/></marker></defs><defs><marker id="filled-head" refX="15.5" refY="7" markerWidth="20" markerHeight="28" orient="auto"><path d="M 18,7 L9,13 L14,7 L9,1 Z"/></marker></defs><defs><marker id="sequencenumber" refX="15" refY="15" markerWidth="60" markerHeight="40" orient="auto" markerUnits="userSpaceOnUse"><circle cx="15" cy="15" r="10"/></marker></defs><defs><marker id="solidTopArrowHead" refX="7.9" refY="7.25" markerUnits="userSpaceOnUse" markerWidth="12" markerHeight="12" orient="auto-start-reverse"><path d="M 0 0 L 10 8 L 0 8 z"/></marker></defs><defs><marker id="solidBottomArrowHead" refX="7.9" refY="0.75" markerUnits="userSpaceOnUse" markerWidth="12" markerHeight="12" orient="auto-start-reverse"><path d="M 0 0 L 10 0 L 0 8 z"/></marker></defs><defs><marker id="stickTopArrowHead" refX="7.5" refY="7" markerUnits="userSpaceOnUse" markerWidth="12" markerHeight="12" orient="auto-start-reverse"><path d="M 0 0 L 7 7" stroke="black" stroke-width="1.5" fill="none"/></marker></defs><defs><marker id="stickBottomArrowHead" refX="7.5" refY="0" markerUnits="userSpaceOnUse" markerWidth="12" markerHeight="12" orient="auto-start-reverse"><path d="M 0 7 L 7 0" stroke="black" stroke-width="1.5" fill="none"/></marker></defs><defs><filter id="drop-shadow" height="130%" width="130%"><feDropShadow dx="4" dy="4" stdDeviation="0" flood-opacity="0.06" flood-color="#FFFFFF"/></filter></defs><g data-et="control-structure" data-id="i11"><line x1="544" y1="459" x2="1515" y2="459" class="loopLine"/><line x1="1515" y1="459" x2="1515" y2="602" class="loopLine"/><line x1="544" y1="602" x2="1515" y2="602" class="loopLine"/><line x1="544" y1="459" x2="544" y2="602" class="loopLine"/><polygon points="544,459 594,459 594,487 585.6,494 544,494" class="labelBox"/><text x="569" y="479" text-anchor="middle" dominant-baseline="middle" alignment-baseline="middle" style="font-size: 16px; font-weight: 400;" class="labelText">opt</text><text x="1054.5" y="477" text-anchor="middle" style="font-size: 16px; font-weight: 400;" class="loopText"><tspan x="1054.5">[Nếu không tìm thấy hoặc đã duyệt]</tspan></text></g><g class="actor-man actor-top" name="Admin" data-et="participant" data-type="actor" data-id="Admin" style="stroke: rgb(238, 222, 187);"><line id="actor-man-torso643" x1="75" y1="27.5" x2="75" y2="37.5"/><line id="actor-man-arms643" x1="66" y1="31.5" x2="84" y2="31.5"/><line x1="66" y1="45" x2="75" y2="37.5"/><line x1="75" y1="37.5" x2="83" y2="45"/><circle cx="75" cy="20" r="7.5" width="75" height="32.5"/><text x="75" y="55" style="text-anchor: middle; font-size: 16px; font-weight: 400;" dominant-baseline="central" alignment-baseline="central" class="actor actor-man"><tspan x="75" dy="0">Admin</tspan></text></g><text x="312" y="80" text-anchor="middle" dominant-baseline="middle" alignment-baseline="middle" style="font-size: 16px; font-weight: 400;" class="messageText" dy="1em">1. Xem danh sách đề xuất</text><line x1="76" y1="113" x2="548" y2="113" class="messageLine0" data-et="message" data-id="i0" data-from="Admin" data-to="ReactApp" stroke-width="2" stroke="none" marker-end="url(#arrowhead)" style="fill: none;"/><text x="312" y="128" text-anchor="middle" dominant-baseline="middle" alignment-baseline="middle" style="font-size: 16px; font-weight: 400;" class="messageText" dy="1em">2. Nhấn nút "Duyệt" (cho suggestion_id)</text><line x1="76" y1="161" x2="548" y2="161" class="messageLine0" data-et="message" data-id="i1" data-from="Admin" data-to="ReactApp" stroke-width="2" stroke="none" marker-end="url(#arrowhead)" style="fill: none;"/><text x="786" y="176" text-anchor="middle" dominant-baseline="middle" alignment-baseline="middle" style="font-size: 16px; font-weight: 400;" class="messageText" dy="1em">3. POST /api/locations/suggestions/{id}/approve</text><line x1="556" y1="209" x2="1015" y2="209" class="messageLine0" data-et="message" data-id="i2" data-from="ReactApp" data-to="LocationController" stroke-width="2" stroke="none" marker-end="url(#arrowhead)" style="fill: none;"/><text x="1260" y="224" text-anchor="middle" dominant-baseline="middle" alignment-baseline="middle" style="font-size: 16px; font-weight: 400;" class="messageText" dy="1em">3.1. approveSuggestion(id)</text><line x1="1023" y1="257" x2="1497" y2="257" class="messageLine0" data-et="message" data-id="i3" data-from="LocationController" data-to="LocationService" stroke-width="2" stroke="none" marker-end="url(#arrowhead)" style="fill: none;"/><text x="1670" y="272" text-anchor="middle" dominant-baseline="middle" alignment-baseline="middle" style="font-size: 16px; font-weight: 400;" class="messageText" dy="1em">3.1.1. findById(id)</text><line x1="1505" y1="305" x2="1835.5" y2="305" class="messageLine0" data-et="message" data-id="i4" data-from="LocationService" data-to="LocationSuggestionRepository" stroke-width="2" stroke="none" marker-end="url(#arrowhead)" style="fill: none;"/><text x="2128" y="320" text-anchor="middle" dominant-baseline="middle" alignment-baseline="middle" style="font-size: 16px; font-weight: 400;" class="messageText" dy="1em">3.1.1.1. SELECT * FROM LocationSuggestion WHERE id = ?</text><line x1="1843.5" y1="353" x2="2412" y2="353" class="messageLine0" data-et="message" data-id="i5" data-from="LocationSuggestionRepository" data-to="Database" stroke-width="2" stroke="none" marker-end="url(#arrowhead)" style="fill: none;"/><text x="2134" y="368" text-anchor="middle" dominant-baseline="middle" alignment-baseline="middle" style="font-size: 16px; font-weight: 400;" class="messageText" dy="1em">Trả về LocationSuggestion (status: PENDING)</text><line x1="2418" y1="401" x2="1849.5" y2="401" class="messageLine1" data-et="message" data-id="i6" data-from="Database" data-to="LocationSuggestionRepository" stroke-width="2" stroke="none" style="stroke-dasharray: 3, 3; fill: none;" marker-end="url(#arrowhead)"/><text x="1676" y="416" text-anchor="middle" dominant-baseline="middle" alignment-baseline="middle" style="font-size: 16px; font-weight: 400;" class="messageText" dy="1em">Trả về LocationSuggestion</text><line x1="1841.5" y1="449" x2="1511" y2="449" class="messageLine1" data-et="message" data-id="i7" data-from="LocationSuggestionRepository" data-to="LocationService" stroke-width="2" stroke="none" style="stroke-dasharray: 3, 3; fill: none;" marker-end="url(#arrowhead)"/><text x="1266" y="509" text-anchor="middle" dominant-baseline="middle" alignment-baseline="middle" style="font-size: 16px; font-weight: 400;" class="messageText" dy="1em">Ném lỗi "Suggestion không hợp lệ"</text><line x1="1503" y1="544" x2="1029" y2="544" class="messageLine1" data-et="message" data-id="i9" data-from="LocationService" data-to="LocationController" stroke-width="2" stroke="none" style="stroke-dasharray: 3, 3; fill: none;" marker-end="url(#arrowhead)"/><text x="792" y="559" text-anchor="middle" dominant-baseline="middle" alignment-baseline="middle" style="font-size: 16px; font-weight: 400;" class="messageText" dy="1em">4.1. Trả về 404 Not Found</text><line x1="1021" y1="592" x2="562" y2="592" class="messageLine1" data-et="message" data-id="i10" data-from="LocationController" data-to="ReactApp" stroke-width="2" stroke="none" style="stroke-dasharray: 3, 3; fill: none;" marker-end="url(#arrowhead)"/><text x="1505" y="617" text-anchor="middle" dominant-baseline="middle" alignment-baseline="middle" style="font-size: 16px; font-weight: 400;" class="messageText" dy="1em">3.1.2. Tạo entity 'Location' mới từ 'LocationSuggestion'</text><path d="M 1505,650 C 1565,640 1565,680 1505,670" class="messageLine0" data-et="message" data-id="i12" data-from="LocationService" data-to="LocationService" stroke-width="2" stroke="none" marker-end="url(#arrowhead)" style="fill: none;"/><text x="1805" y="695" text-anchor="middle" dominant-baseline="middle" alignment-baseline="middle" style="font-size: 16px; font-weight: 400;" class="messageText" dy="1em">3.1.3. save(newLocation)</text><line x1="1505" y1="728" x2="2105" y2="728" class="messageLine0" data-et="message" data-id="i13" data-from="LocationService" data-to="LocationRepository" stroke-width="2" stroke="none" marker-end="url(#arrowhead)" style="fill: none;"/><text x="2263" y="743" text-anchor="middle" dominant-baseline="middle" alignment-baseline="middle" style="font-size: 16px; font-weight: 400;" class="messageText" dy="1em">3.1.3.1. INSERT INTO Location</text><line x1="2113" y1="776" x2="2412" y2="776" class="messageLine0" data-et="message" data-id="i14" data-from="LocationRepository" data-to="Database" stroke-width="2" stroke="none" marker-end="url(#arrowhead)" style="fill: none;"/><text x="2269" y="791" text-anchor="middle" dominant-baseline="middle" alignment-baseline="middle" style="font-size: 16px; font-weight: 400;" class="messageText" dy="1em">Trả về Location đã lưu</text><line x1="2418" y1="824" x2="2119" y2="824" class="messageLine1" data-et="message" data-id="i15" data-from="Database" data-to="LocationRepository" stroke-width="2" stroke="none" style="stroke-dasharray: 3, 3; fill: none;" marker-end="url(#arrowhead)"/><text x="1811" y="839" text-anchor="middle" dominant-baseline="middle" alignment-baseline="middle" style="font-size: 16px; font-weight: 400;" class="messageText" dy="1em">​</text><line x1="2111" y1="834" x2="1511" y2="834" class="messageLine1" data-et="message" data-id="i16" data-from="LocationRepository" data-to="LocationService" stroke-width="2" stroke="none" style="stroke-dasharray: 3, 3; fill: none;" marker-end="url(#arrowhead)"/><text x="1505" y="849" text-anchor="middle" dominant-baseline="middle" alignment-baseline="middle" style="font-size: 16px; font-weight: 400;" class="messageText" dy="1em">3.1.4. Cập nhật trạng thái LocationSuggestion (PENDING -&gt; APPROVED)</text><path d="M 1505,882 C 1565,872 1565,912 1505,902" class="messageLine0" data-et="message" data-id="i17" data-from="LocationService" data-to="LocationService" stroke-width="2" stroke="none" marker-end="url(#arrowhead)" style="fill: none;"/><text x="1670" y="927" text-anchor="middle" dominant-baseline="middle" alignment-baseline="middle" style="font-size: 16px; font-weight: 400;" class="messageText" dy="1em">3.1.5. save(suggestion)</text><line x1="1505" y1="960" x2="1835.5" y2="960" class="messageLine0" data-et="message" data-id="i18" data-from="LocationService" data-to="LocationSuggestionRepository" stroke-width="2" stroke="none" marker-end="url(#arrowhead)" style="fill: none;"/><text x="2128" y="975" text-anchor="middle" dominant-baseline="middle" alignment-baseline="middle" style="font-size: 16px; font-weight: 400;" class="messageText" dy="1em">3.1.5.1. UPDATE LocationSuggestion SET status = 'APPROVED'</text><line x1="1843.5" y1="1008" x2="2412" y2="1008" class="messageLine0" data-et="message" data-id="i19" data-from="LocationSuggestionRepository" data-to="Database" stroke-width="2" stroke="none" marker-end="url(#arrowhead)" style="fill: none;"/><text x="2134" y="1023" text-anchor="middle" dominant-baseline="middle" alignment-baseline="middle" style="font-size: 16px; font-weight: 400;" class="messageText" dy="1em">​</text><line x1="2418" y1="1018" x2="1849.5" y2="1018" class="messageLine1" data-et="message" data-id="i20" data-from="Database" data-to="LocationSuggestionRepository" stroke-width="2" stroke="none" style="stroke-dasharray: 3, 3; fill: none;" marker-end="url(#arrowhead)"/><text x="1676" y="1033" text-anchor="middle" dominant-baseline="middle" alignment-baseline="middle" style="font-size: 16px; font-weight: 400;" class="messageText" dy="1em">​</text><line x1="1841.5" y1="1028" x2="1511" y2="1028" class="messageLine1" data-et="message" data-id="i21" data-from="LocationSuggestionRepository" data-to="LocationService" stroke-width="2" stroke="none" style="stroke-dasharray: 3, 3; fill: none;" marker-end="url(#arrowhead)"/><text x="1266" y="1043" text-anchor="middle" dominant-baseline="middle" alignment-baseline="middle" style="font-size: 16px; font-weight: 400;" class="messageText" dy="1em">3.1.6. Trả về MessageResponse "Duyệt thành công"</text><line x1="1503" y1="1076" x2="1029" y2="1076" class="messageLine1" data-et="message" data-id="i22" data-from="LocationService" data-to="LocationController" stroke-width="2" stroke="none" style="stroke-dasharray: 3, 3; fill: none;" marker-end="url(#arrowhead)"/><text x="792" y="1091" text-anchor="middle" dominant-baseline="middle" alignment-baseline="middle" style="font-size: 16px; font-weight: 400;" class="messageText" dy="1em">4.2. Trả về 200 OK</text><line x1="1021" y1="1124" x2="562" y2="1124" class="messageLine1" data-et="message" data-id="i23" data-from="LocationController" data-to="ReactApp" stroke-width="2" stroke="none" style="stroke-dasharray: 3, 3; fill: none;" marker-end="url(#arrowhead)"/><text x="318" y="1139" text-anchor="middle" dominant-baseline="middle" alignment-baseline="middle" style="font-size: 16px; font-weight: 400;" class="messageText" dy="1em">Cập nhật UI (địa điểm biến mất khỏi danh sách chờ)</text><line x1="554" y1="1172" x2="82" y2="1172" class="messageLine1" data-et="message" data-id="i24" data-from="ReactApp" data-to="Admin" stroke-width="2" stroke="none" style="stroke-dasharray: 3, 3; fill: none;" marker-end="url(#arrowhead)"/><g class="actor-man actor-bottom" name="Admin" style="stroke: rgb(238, 222, 187);"><line id="actor-man-torso649" x1="75" y1="1219.5" x2="75" y2="1229.5"/><line id="actor-man-arms649" x1="66" y1="1223.5" x2="84" y2="1223.5"/><line x1="66" y1="1237" x2="75" y2="1229.5"/><line x1="75" y1="1229.5" x2="83" y2="1237"/><circle cx="75" cy="1212" r="7.5" width="75" height="16.25"/><text x="75" y="1247" style="text-anchor: middle; font-size: 16px; font-weight: 400;" dominant-baseline="central" alignment-baseline="central" class="actor actor-man"><tspan x="75" dy="0">Admin</tspan></text></g></svg>